<?xml version="1.0" encoding="utf-8"?>
<!-- Generator: Adobe Illustrator 19.1.0, SVG Export Plug-In . SVG Version: 6.00 Build 0)  -->
<svg version="1.1" id="Layer_1" xmlns="http://www.w3.org/2000/svg" xmlns:xlink="http://www.w3.org/1999/xlink" x="0px" y="0px"
	 viewBox="100 139 229 92" style="enable-background:new 100 139 229 92;" xml:space="preserve">
<style type="text/css">
	.st0{fill:#A30046;}
	.st1{fill:#F1CB00;}
	.st2{fill:#004B8D;}
</style>
<path class="st0" d="M147.5,206.7V227l5.2-20.9C151,206.4,149.3,206.7,147.5,206.7z"/>
<path class="st1" d="M147.3,206.7c-1.7,0-3.3-0.2-4.9-0.5l5.2,20.8v-20.4C147.4,206.7,147.3,206.7,147.3,206.7z"/>
<path class="st2" d="M135.3,203.8l-0.4,9.9l6.9-7.5C139.5,205.6,137.3,204.8,135.3,203.8z"/>
<path class="st1" d="M130.9,200.7C130.9,200.7,130.9,200.7,130.9,200.7l-13.7,13.6l17.8-10.7C133.5,202.8,132.2,201.8,130.9,200.7z"
	/>
<path class="st0" d="M127.6,197l-10.3,17.3l13.6-13.6C129.6,199.6,128.5,198.3,127.6,197z"/>
<path class="st2" d="M124.4,190l-7.3,6.7l10.1-0.4C125.9,194.4,125,192.3,124.4,190z"/>
<path class="st0" d="M123.7,184.4c0-0.1,0-0.2,0-0.3h-18.5l19,4.9C123.8,187.4,123.7,185.9,123.7,184.4z"/>
<path class="st1" d="M124.3,179.1l-19.2,4.9h18.6C123.7,182.4,123.9,180.7,124.3,179.1z"/>
<path class="st2" d="M127.3,172.5l-10-0.4l7.2,6.6C125.1,176.5,126,174.4,127.3,172.5z"/>
<path class="st1" d="M131,168.2l-14.1-14.1l10.7,18C128.6,170.6,129.7,169.3,131,168.2z"/>
<path class="st0" d="M135.3,165.1l-18.4-11l14.1,14.1C132.3,167,133.7,165.9,135.3,165.1z"/>
<path class="st2" d="M141.9,162.5l-6.7-7.3l0.4,9.7C137.5,163.8,139.6,163,141.9,162.5z"/>
<path class="st0" d="M147.4,161.8v-19.7l-5.1,20.3C144,162,145.7,161.8,147.4,161.8z"/>
<path class="st1" d="M147.5,161.8c1.7,0,3.4,0.2,5.1,0.5l-5.1-20.3L147.5,161.8C147.4,161.8,147.5,161.8,147.5,161.8z"/>
<path class="st2" d="M159.3,164.7l0.4-9.5l-6.7,7.2C155.3,162.9,157.4,163.7,159.3,164.7z"/>
<path class="st1" d="M159.9,165.1c1.5,0.9,2.9,1.9,4.2,3l13.8-13.7L159.9,165.1z"/>
<path class="st0" d="M164.1,168.1c0.1,0.1,0.1,0.1,0.2,0.2c1.2,1.1,2.2,2.4,3,3.7l10.5-17.6L164.1,168.1z"/>
<path class="st2" d="M167.5,172.4c1.1,1.9,2,4.1,2.5,6.3l7.4-6.7L167.5,172.4z"/>
<path class="st0" d="M191.8,224l-26.6-28.3c2.4-3.2,3.6-7.2,3.6-11.5c0-12.1-9.6-20.1-21.3-20.1c-11.7,0-21.7,8.7-21.7,20.9
	c0,11.8,9.3,20.1,21,20.1c0.8,0,2.8-0.1,4-0.2c1.4-0.2,2.3-0.3,6-1.8l-4.5-3.1c-1.5,0.6-3.2,0.9-4.9,0.9c-9,0-14.8-7.3-14.8-17
	c0-7.8,5.3-15.6,14.8-15.6c10,0,14.8,8.6,14.8,16.9c0,4-1.4,7.6-3.7,10.4l3.7,3.2l0,0L191.8,224z"/>
<polygon class="st1" points="191.8,224 158.5,195.6 151,195.6 "/>
<path class="st2" d="M158.3,204.1c-1.6,0.8-3.3,1.5-5.1,1.9l6.8,7.3l-0.4-8.3L158.3,204.1z"/>
<path class="st0" d="M172.5,183c0-0.7-0.2-1.3-0.5-1.8c-0.3-0.5-0.9-1.1-1.5-1.5h9.1c-0.3,0.2-0.8,0.7-1.1,1c-0.3,0.3-0.8,1-0.8,2
	v13c0,1.9,0.2,3.1,1.2,4c1,1,3.1,1.7,5.1,1.7c3.1,0,4.4-0.3,5.9-1.2c1.4-0.9,2.3-1.9,2.3-3.3v-13c0-1.2-0.2-2.1-0.6-2.7
	c-0.4-0.6-0.9-1.2-1.6-1.6h9.4c-0.7,0.6-1.3,1.2-1.6,1.9c-0.3,0.7-0.4,1.6-0.4,2.4v16.7c0.1,1.5,1,2.5,1.8,3.1h-6.7v-2
	c-0.9,0.8-2.4,1.6-3.5,1.9c-1.2,0.4-3.1,0.8-5.3,0.8c-3.7,0-6.4-0.7-8.5-2.5c-1.1-1-1.8-2.2-2.1-3.1c-0.3-0.9-0.4-1.7-0.4-2.4
	L172.5,183L172.5,183z M211.3,182.3c0.4-0.8,0.3-1.3,0.1-1.7c-0.1-0.3-0.9-0.7-1.2-0.9h7.6c0,0,5.2,10.7,10.2,20.7
	c0.9,1.8,1.8,2.4,3.3,3.4h-9.5c1.5-1.2,1.8-1.8,1.2-2.8c-2.6-5.4-2.9-6.1-2.9-6.1h-11.1c0,0-0.1,0.2-3.2,6.1
	c-0.5,0.9,0.2,1.6,0.3,1.9c0.2,0.3,0.9,0.9,1,1h-7.6c1.8-1.5,2.6-3.1,3-3.7C204.8,195.7,209,186.8,211.3,182.3z M218.7,192.2
	l-4.1-8.7l-4.4,8.7H218.7z M235,180.9c3.7-2,7.9-1.9,12-1.6c3,0.3,4.1,0.7,4.1,0.7s0,0.3,0,0.8c0,1.1,0,2.6,0,3.6
	c-1.1-0.8-3-1.6-4.3-2c-1.7-0.4-3.7-0.6-5.5-0.3c-2.2,0.3-5.5,2.4-2.7,4.8c1.7,1.4,8.3,3.5,10.5,4.6c3.3,1.5,5.4,4.3,4.3,7.3
	c-0.9,2.5-3.2,3.8-5.8,4.8c-3.1,1.3-7.1,1.2-10.4,0.8c-1.6-0.2-3.2-0.6-4.8-1c-1.4-4.5-0.1-0.2-1.4-4.7c4.4,2.2,10.2,3.6,14.7,2.1
	c1.7-0.6,3.1-2.6,1.8-4.3c-1.1-1.5-3.2-2.1-4.9-2.7c-2.5-0.9-5.2-1.7-7.5-3.1c-1.8-1.1-3.3-2.7-3.2-5
	C232,183.3,233.2,181.8,235,180.9z M293,203.8c-2.1-1.5-2.2-2.7-2.2-5.2c0-3.6,0-9.5,0-13.1c0-1,0-1.9,0-2.9
	c1.1-0.1,4.3-0.3,5.9,0.3c2.5,0.9,3.5,2.9,2.5,4.9c-1.3,2.2-5.2,2.8-7.5,3.5c2.7,2.9,5.7,6.2,8.4,9.1c1.6,1.7,3.6,3.3,6.1,3.4
	c1.9,0.1,2.4,0.1,4.3,0.1c-5.1-3.3-8-7.6-12.4-11.7c3.9-1.4,7.8-3.8,6.7-7.6c-1.1-3.4-5.4-4.8-11.3-4.8h-10c0.1,0.1,1.1,0.8,1.4,1.2
	c0.3,0.4,0.7,0.9,0.7,2.3v17.8c0,1.1-0.9,1.9-1.9,2.9L293,203.8L293,203.8z M283.5,203.8h-9.4c1.5-1.2,1.8-1.8,1.2-2.8
	c-2.6-5.4-2.9-6.1-2.9-6.1h-11.1c0,0-0.1,0.2-3.2,6.1c-0.5,0.9,0.2,1.7,0.3,1.9c0.2,0.2,1,0.9,1.1,1h-7.7c1.8-1.5,2.6-3.1,3-3.7
	c2.5-4.3,6.7-13.2,8.9-17.7c0.4-0.8,0.2-1.4,0-1.7c-0.1-0.3-0.9-0.7-1.2-0.9h7.6c0,0,5.2,10.7,10.2,20.7
	C281.3,202.2,282,202.6,283.5,203.8z M271.2,192.2l-4.1-8.7l-4.4,8.7H271.2z"/>
<path class="st2" d="M195.6,217.4c0,0.8-0.2,2,0.8,2.3v0.1h-3.6v-0.1c1-0.3,0.9-1.6,0.9-2.3V211c0-0.8,0.1-2-0.9-2.3v-0.1h6.2
	c0.3,0,0.7,0,0.9-0.1h0.1v2h-0.1c-0.6-0.6-1.4-0.7-2.3-0.7c-0.7,0-1.3,0-2,0.1v3.2h2.3c0.3,0,0.6,0,0.8-0.1h0.1v1.8h-0.1
	c-0.3-0.5-1.1-0.5-1.7-0.5h-1.4L195.6,217.4L195.6,217.4z"/>
<path class="st2" d="M202.7,215.6c0,2.1,1.7,3.3,3.9,3.3c1.2,0,2.3-0.3,3.2-0.9h0.1l-1,1.6c-0.8,0.3-1.8,0.4-2.7,0.4
	c-3.3,0-5.5-1.8-5.5-4.2s1.9-4.1,4.8-4.1c2.6,0,4.4,1.7,4.3,3.8L202.7,215.6L202.7,215.6z M207.8,214.6c-0.2-1.2-1.1-1.7-2.5-1.7
	c-1.3,0-2.3,0.7-2.5,1.7H207.8z"/>
<path class="st2" d="M219.2,208.6c0.4,0,0.9,0,1.1-0.3h0.1v9.6c0,0.8-0.1,1.4,0.7,1.8v0.1h-2.5v-3.6c0-0.7,0.1-1.4-0.3-2.1
	c-0.5-0.8-1.5-1.2-2.5-1.2c-1.5,0-2.8,1.2-2.8,2.8c0,1.7,1.4,3.2,3.4,3.2c0.6,0,1.1-0.2,1.7-0.5l-1.1,1.5c-0.3,0.1-0.7,0.1-1,0.1
	c-2.8,0-4.9-1.6-4.9-4.1c0-2.3,1.9-4.1,4.6-4.1c1.1,0,2.2,0.4,3,1v-2.3c0-0.8,0.1-1.4-0.7-1.8v-0.1L219.2,208.6L219.2,208.6z"/>
<path class="st2" d="M223.5,215.6c0,2.1,1.7,3.3,3.9,3.3c1.2,0,2.3-0.3,3.2-0.9h0.1l-1,1.6c-0.8,0.3-1.8,0.4-2.7,0.4
	c-3.3,0-5.5-1.8-5.5-4.2s1.9-4.1,4.8-4.1c2.6,0,4.4,1.7,4.3,3.8L223.5,215.6L223.5,215.6z M228.5,214.6c-0.2-1.2-1.1-1.7-2.5-1.7
	c-1.3,0-2.3,0.7-2.5,1.7H228.5z"/>
<path class="st2" d="M232.9,211.9c0.4,0,0.9,0,1.2-0.2h0.1v1.3c0.4-0.8,1.3-1.3,2.3-1.3l0.7,0.1v1.6c-0.2-0.2-0.6-0.3-0.9-0.3
	c-1.5,0-2.1,0.7-2.1,2.4v2.4c0,0.8-0.1,1.4,0.7,1.8v0.1h-3.2v-0.1c0.9-0.4,0.7-1.1,0.7-1.8v-4.1c0-0.8,0.1-1.4-0.7-1.8v-0.1H232.9z"
	/>
<path class="st2" d="M245.7,220c-1.3-0.1-2.5-0.4-2.5-1.8v-2.7c-0.6,0.3-1.2,0.4-1.9,0.5c-0.9,0.2-2,0.4-2,1.4
	c0,1.1,1.1,1.4,2.1,1.4c0.5,0,0.9-0.1,1.4-0.2l-1.1,1.3c-0.3,0.1-0.7,0.1-1,0.1c-1.9,0-3.3-1.1-3.3-2.5c0-3.2,5.8-1.7,5.8-3.6
	c0-0.8-1.1-1.1-1.9-1.1c-1,0-1.8,0.3-2.6,0.7l1.3-1.7l1.3-0.1c2.1,0,3.7,0.5,3.7,2.6v2.5c0,1.3,0,1.9,1.6,2L245.7,220z"/>
<path class="st2" d="M248.2,208.6c0.4,0,0.9,0,1.2-0.3h0.1v9.6c0,0.8-0.1,1.4,0.7,1.8v0.1H247v-0.1c0.8-0.4,0.7-1.1,0.7-1.8v-7.4
	c0-0.8,0.1-1.4-0.7-1.8v-0.1H248.2L248.2,208.6z"/>
<path class="st2" d="M264.6,210.6c-0.7-0.7-1.9-1.1-3-1.1c-1.1,0-2.5,0.4-2.5,1.5c0,2.3,6.6,2.3,6.6,5.4c0,1.8-2.2,3.5-5.2,3.5
	c-1.2,0-2.4-0.1-3.4-0.5l-0.6-2.1c1.1,0.9,2.7,1.4,4.2,1.4c1.1,0,2.8-0.6,2.8-1.8c0-2.7-6.6-2.2-6.6-5.8c0-2.1,2.5-3,4.8-3
	c1,0,1.9,0.1,2.9,0.4V210.6z"/>
<path class="st2" d="M273.5,213.9c0.3-0.7,0.7-1.6-0.2-1.9v-0.1h2.7l-4,8.4c-1,2.2-2.4,2.8-4.2,2.8c-0.8,0-1.5-0.2-2.3-0.4l1.7-1.1
	c0.3,0.2,0.7,0.4,1.1,0.4c1.3,0,1.9-1.3,2.3-2.2l0.1-0.3l-0.1-0.1c-0.6-0.6-0.6-0.7-1-1.4l-2.4-4.5c-0.4-0.7-0.6-1.3-1.5-1.7v-0.1
	h1.6c0.7,0,1.1,0.3,1.3,0.7l2.8,5.6L273.5,213.9z"/>
<path class="st2" d="M282.7,213.4c-0.7-0.3-1.5-0.5-2.4-0.5c-0.6,0-1.8,0.1-1.8,0.8c0,1.5,5.2,1,5.2,3.7c0,1.6-1.8,2.7-4.3,2.7
	c-0.9,0-1.7-0.1-2.5-0.4l-0.7-1.7c1.1,0.6,2.3,0.9,3.6,0.9c0.8,0,2.1-0.2,2.1-1.1c0-1.7-5.2-1.2-5.2-3.8c0-1.8,2.1-2.3,3.8-2.3
	c0.7,0,1.5,0.1,2.1,0.2V213.4z"/>
<path class="st2" d="M287.6,216.5c0,0.7-0.2,2.4,1.8,2.4c0.3,0,0.5-0.1,0.8-0.2l-1,1.2c-0.2,0.1-0.4,0.1-0.6,0.1
	c-3,0-2.7-2.7-2.7-3.4v-3.5h-1.3v-0.6c1.8-0.3,2.3-1.5,2.3-3h0.8v2.5h1.8c0.3,0,0.5,0,0.7-0.1h0.1v1.5h-0.1
	c-0.3-0.4-0.9-0.3-1.4-0.3h-1.2L287.6,216.5L287.6,216.5z"/>
<path class="st2" d="M292.9,215.6c0,2.1,1.7,3.3,3.9,3.3c1.2,0,2.3-0.3,3.2-0.9h0.1l-1,1.6c-0.8,0.3-1.8,0.4-2.7,0.4
	c-3.3,0-5.5-1.8-5.5-4.2s1.9-4.1,4.8-4.1c2.6,0,4.4,1.7,4.3,3.8L292.9,215.6L292.9,215.6z M298,214.6c-0.2-1.2-1.1-1.7-2.5-1.7
	c-1.3,0-2.3,0.7-2.5,1.7H298z"/>
<path class="st2" d="M302.1,211.9c0.4,0,0.9,0,1.2-0.2h0.1v1.3c0.7-0.9,1.4-1.3,2.7-1.3c1.4,0,2.3,0.5,3,1.5
	c0.7-0.9,1.7-1.5,3.1-1.5c2.7,0,3.4,1.4,3.4,3.5v2.6c0,0.7-0.1,1.6,0.9,1.8v0.1h-3.3v-0.1c0.9-0.4,0.7-1.1,0.7-1.8v-2.2
	c0-1.7-0.6-2.8-2.2-2.8c-1.7,0-2.2,1-2.2,2.6v2.5c0,0.8-0.1,1.4,0.7,1.8v0.1H307v-0.1c0.9-0.4,0.7-1.1,0.7-1.8v-2.3
	c0-1.8-1-2.7-2.2-2.7c-1.5,0-2.2,0.8-2.2,2.4v2.6c0,0.8-0.1,1.4,0.7,1.8v0.1h-3.2v-0.1c0.9-0.4,0.7-1.1,0.7-1.8v-4.1
	c0-0.8,0.1-1.4-0.7-1.8v-0.1H302.1z"/>
<path class="st2" d="M323.1,213.4c-0.7-0.3-1.5-0.5-2.4-0.5c-0.6,0-1.8,0.1-1.8,0.8c0,1.5,5.2,1,5.2,3.7c0,1.6-1.8,2.7-4.3,2.7
	c-0.9,0-1.7-0.1-2.5-0.4l-0.7-1.7c1.1,0.6,2.3,0.9,3.6,0.9c0.8,0,2.1-0.2,2.1-1.1c0-1.7-5.2-1.2-5.2-3.8c0-1.8,2.1-2.3,3.8-2.3
	c0.7,0,1.5,0.1,2.1,0.2V213.4z"/>
</svg>
